<svg width="393" height="72" viewBox="0 0 393 72" fill="none" xmlns="http://www.w3.org/2000/svg">
<path d="M32.408 24.024L35.432 40.584L37.352 40.896L37.304 41.88H30.608L30.656 40.896L32.72 40.608L32.072 36.672H25.592L23.792 40.608L25.976 40.896L25.88 41.88H20L20.096 40.896L21.728 40.608L29.792 24.024H32.408ZM26.216 35.304H31.88L30.656 27.624L30.512 25.92L26.216 35.304Z" fill="black"/>
<path d="M41.1494 30.12C41.5654 29.592 42.0854 29.152 42.7094 28.8C43.3494 28.432 44.0454 28.248 44.7974 28.248C46.1254 28.248 47.1254 28.704 47.7974 29.616C48.4854 30.528 48.8294 31.768 48.8294 33.336C48.8294 34.744 48.5174 36.128 47.8934 37.488C47.2694 38.848 46.3734 39.96 45.2054 40.824C44.0534 41.688 42.7254 42.12 41.2214 42.12C40.9334 42.12 40.3734 42.048 39.5414 41.904L38.7014 47.976H36.2774L38.7014 30.192L37.4294 29.64L37.5974 28.8L40.8374 28.248L41.3414 28.512L41.1494 30.12ZM39.7574 40.368C40.2054 40.656 40.7894 40.8 41.5094 40.8C42.5014 40.8 43.3494 40.432 44.0534 39.696C44.7574 38.944 45.2854 38 45.6374 36.864C45.9894 35.728 46.1654 34.576 46.1654 33.408C46.1654 32.304 45.9734 31.44 45.5894 30.816C45.2214 30.176 44.7014 29.856 44.0294 29.856C43.4054 29.856 42.8214 30.048 42.2774 30.432C41.7334 30.816 41.2934 31.264 40.9574 31.776L39.7574 40.368Z" fill="black"/>
<path d="M59.3456 39.624C59.3296 39.688 59.3216 39.776 59.3216 39.888C59.3216 40.128 59.3616 40.304 59.4416 40.416C59.5376 40.528 59.6576 40.584 59.8016 40.584C60.0576 40.584 60.4096 40.384 60.8576 39.984L61.1936 40.608C61.0176 40.896 60.6816 41.224 60.1856 41.592C59.7056 41.944 59.1616 42.12 58.5536 42.12C58.0576 42.12 57.6656 42 57.3776 41.76C57.0896 41.504 56.9536 41.112 56.9696 40.584L57.0656 39.888C56.5536 40.512 55.9536 41.04 55.2656 41.472C54.5936 41.904 53.8656 42.12 53.0816 42.12C51.7856 42.12 50.8176 41.664 50.1776 40.752C49.5376 39.824 49.2176 38.608 49.2176 37.104C49.2176 35.728 49.5216 34.36 50.1296 33C50.7376 31.624 51.6256 30.488 52.7936 29.592C53.9616 28.696 55.3296 28.248 56.8976 28.248C57.2656 28.248 57.6816 28.296 58.1456 28.392C58.6096 28.472 59.0336 28.568 59.4176 28.68L60.8816 28.272L59.3456 39.624ZM58.1696 29.952C57.7536 29.696 57.2416 29.568 56.6336 29.568C55.6096 29.568 54.7376 29.944 54.0176 30.696C53.2976 31.448 52.7536 32.392 52.3856 33.528C52.0336 34.648 51.8576 35.776 51.8576 36.912C51.8576 38.064 52.0256 38.96 52.3616 39.6C52.7136 40.224 53.2256 40.536 53.8976 40.536C54.4576 40.536 55.0176 40.328 55.5776 39.912C56.1536 39.48 56.6416 38.992 57.0416 38.448L58.1696 29.952Z" fill="black"/>
<path d="M65.8514 31.656C66.0434 31.128 66.3474 30.608 66.7634 30.096C67.1954 29.568 67.7074 29.136 68.2994 28.8C68.8914 28.448 69.5154 28.272 70.1714 28.272C70.5554 28.272 70.8114 28.328 70.9394 28.44L70.3874 31.2C70.1474 31.024 69.7554 30.936 69.2114 30.936C68.5554 30.936 67.8994 31.144 67.2434 31.56C66.6034 31.96 66.1154 32.528 65.7794 33.264L64.6514 41.88H62.1794L63.6914 30.336L62.4674 29.736L62.6594 28.824L65.6114 28.272L66.1154 28.56L65.9474 30.72L65.8514 31.656Z" fill="black"/>
<path d="M80.2546 39.624C80.2386 39.688 80.2306 39.776 80.2306 39.888C80.2306 40.128 80.2706 40.304 80.3506 40.416C80.4466 40.528 80.5666 40.584 80.7106 40.584C80.9666 40.584 81.3186 40.384 81.7666 39.984L82.1026 40.608C81.9266 40.896 81.5906 41.224 81.0946 41.592C80.6146 41.944 80.0706 42.12 79.4626 42.12C78.9666 42.12 78.5746 42 78.2866 41.76C77.9986 41.504 77.8626 41.112 77.8786 40.584L77.9746 39.888C77.4626 40.512 76.8626 41.04 76.1746 41.472C75.5026 41.904 74.7746 42.12 73.9906 42.12C72.6946 42.12 71.7266 41.664 71.0866 40.752C70.4466 39.824 70.1266 38.608 70.1266 37.104C70.1266 35.728 70.4306 34.36 71.0386 33C71.6466 31.624 72.5346 30.488 73.7026 29.592C74.8706 28.696 76.2386 28.248 77.8066 28.248C78.1746 28.248 78.5906 28.296 79.0546 28.392C79.5186 28.472 79.9426 28.568 80.3266 28.68L81.7906 28.272L80.2546 39.624ZM79.0786 29.952C78.6626 29.696 78.1506 29.568 77.5426 29.568C76.5186 29.568 75.6466 29.944 74.9266 30.696C74.2066 31.448 73.6626 32.392 73.2946 33.528C72.9426 34.648 72.7666 35.776 72.7666 36.912C72.7666 38.064 72.9346 38.96 73.2706 39.6C73.6226 40.224 74.1346 40.536 74.8066 40.536C75.3666 40.536 75.9266 40.328 76.4866 39.912C77.0626 39.48 77.5506 38.992 77.9506 38.448L79.0786 29.952Z" fill="black"/>
<path d="M86.0885 37.656C85.9765 38.392 85.9205 38.976 85.9205 39.408C85.9205 39.792 85.9925 40.064 86.1365 40.224C86.2965 40.384 86.5685 40.464 86.9525 40.464C87.2885 40.464 87.6805 40.368 88.1285 40.176C88.5925 39.984 88.9525 39.784 89.2085 39.576L89.4485 40.392C89.0965 40.792 88.5445 41.184 87.7925 41.568C87.0405 41.936 86.2645 42.12 85.4645 42.12C84.8085 42.12 84.2885 41.96 83.9045 41.64C83.5365 41.304 83.3525 40.792 83.3525 40.104C83.3525 39.8 83.4085 39.16 83.5205 38.184L84.6005 30.072H83.1605L83.3765 29.088L84.8645 28.584C85.2165 28.2 85.7205 27.104 86.3765 25.296H87.7205L87.3125 28.56H90.3845L90.1925 30.072H87.1205L86.0885 37.656Z" fill="black"/>
<path d="M93.3232 35.952C93.1632 37.264 93.0832 38.144 93.0832 38.592C93.0832 39.344 93.2112 39.864 93.4672 40.152C93.7232 40.44 94.1152 40.584 94.6432 40.584C95.2192 40.584 95.8112 40.384 96.4192 39.984C97.0272 39.568 97.5472 39.072 97.9792 38.496L99.3232 28.368H101.819L100.283 39.72L100.259 39.984C100.259 40.176 100.291 40.328 100.355 40.44C100.435 40.536 100.531 40.584 100.643 40.584C100.963 40.584 101.371 40.344 101.867 39.864L102.179 40.512C101.987 40.816 101.627 41.16 101.099 41.544C100.571 41.912 99.9872 42.096 99.3472 42.096C98.8512 42.096 98.4752 41.968 98.2192 41.712C97.9632 41.456 97.8512 41.096 97.8832 40.632C97.8832 40.664 97.9072 40.392 97.9552 39.816L97.9312 39.792C96.6512 41.344 95.2112 42.12 93.6112 42.12C92.6992 42.12 91.9632 41.88 91.4032 41.4C90.8432 40.904 90.5552 40.096 90.5392 38.976C90.5392 38.224 90.6912 36.832 90.9952 34.8L91.6192 30.336L90.3472 29.64L90.5152 28.728L93.7792 28.272L94.2832 28.536L93.4672 34.896L93.3232 35.952Z" fill="black"/>
<path d="M102.507 30.6C102.651 30.408 102.971 30.2 103.467 29.976C103.947 29.752 104.499 29.64 105.123 29.64C105.843 29.64 106.419 29.8 106.851 30.12C107.283 30.424 107.499 30.872 107.499 31.464C107.499 31.976 107.323 32.448 106.971 32.88C106.619 33.296 106.099 33.752 105.411 34.248C104.851 34.664 104.395 35.04 104.043 35.376C103.691 35.696 103.387 36.104 103.131 36.6C102.875 37.08 102.747 37.624 102.747 38.232C102.747 39.064 102.971 39.776 103.419 40.368C103.867 40.944 104.475 41.384 105.243 41.688C105.995 41.976 106.819 42.12 107.715 42.12C108.435 42.12 109.155 42.04 109.875 41.88C110.595 41.72 111.067 41.544 111.291 41.352L111.087 40.476L110.883 39.6C110.563 39.856 110.107 40.096 109.515 40.32C108.923 40.544 108.307 40.656 107.667 40.656C106.995 40.656 106.419 40.512 105.939 40.224C105.459 39.936 105.219 39.464 105.219 38.808C105.219 38.248 105.411 37.768 105.795 37.368C106.179 36.968 106.747 36.504 107.499 35.976C109.131 34.84 109.947 33.528 109.947 32.04C109.947 31.288 109.739 30.624 109.323 30.048C108.891 29.472 108.307 29.032 107.571 28.728C106.835 28.408 106.019 28.248 105.123 28.248C104.547 28.248 103.963 28.304 103.371 28.416C102.763 28.512 102.339 28.608 102.099 28.704L102.507 30.6Z" fill="black"/>
<path d="M353 36H369M353 42H369M353 30H369" stroke="#656565" stroke-width="1.66667" stroke-linecap="round" stroke-linejoin="round"/>
</svg>
